<svg width="25" height="24" viewBox="0 0 25 24" fill="none" xmlns="http://www.w3.org/2000/svg">
<path fill-rule="evenodd" clip-rule="evenodd" d="M8.5 4H16.5V2H18.5V4H19.5C20.0304 4 20.5391 4.21071 20.9142 4.58579C21.2893 4.96086 21.5 5.46957 21.5 6V20C21.5 20.5304 21.2893 21.0391 20.9142 21.4142C20.5391 21.7893 20.0304 22 19.5 22H5.5C4.96957 22 4.46086 21.7893 4.08579 21.4142C3.71071 21.0391 3.5 20.5304 3.5 20V6C3.5 5.46957 3.71071 4.96086 4.08579 4.58579C4.46086 4.21071 4.96957 4 5.5 4H6.5V2H8.5V4ZM5.5 8V20H19.5V8H5.5ZM7.5 11H9.5V13H7.5V11ZM11.5 11H13.5V13H11.5V11ZM15.5 11H17.5V13H15.5V11ZM15.5 15H17.5V17H15.5V15ZM11.5 15H13.5V17H11.5V15ZM7.5 15H9.5V17H7.5V15Z" fill="black"/>
</svg>
