<svg width="24" height="24" viewBox="0 0 24 24" fill="none" xmlns="http://www.w3.org/2000/svg">
<path d="M18.618 7.46201L6.403 2.08501C6.28208 2.03158 6.15177 2.00266 6.0196 1.99991C5.88743 1.99716 5.75603 2.02065 5.633 2.06901C5.51006 2.1176 5.39798 2.19007 5.30323 2.28224C5.20848 2.37442 5.13295 2.48446 5.081 2.60601L2.081 9.60601C1.97653 9.84975 1.97315 10.125 2.07161 10.3712C2.17006 10.6175 2.36228 10.8145 2.606 10.919L9.563 13.9L8.323 17H4V14H2V22H4V19H8.323C9.146 19 9.875 18.506 10.179 17.742L11.401 14.688L14.82 16.153C15.0626 16.2573 15.3367 16.2613 15.5823 16.1643C15.8279 16.0672 16.0252 15.877 16.131 15.635L19.131 8.77801C19.2371 8.53543 19.2427 8.26066 19.1466 8.01395C19.0504 7.76725 18.8603 7.56876 18.618 7.46201ZM19.93 16.372L18.072 15.63L20.07 10.63L21.928 11.371L19.93 16.372Z" fill="black"/>
</svg>
