<svg width="24" height="24" viewBox="0 0 24 24" fill="none" xmlns="http://www.w3.org/2000/svg">
<path d="M21.9984 17.0016H2.00156C0.895313 17.0016 0 17.8969 0 18.9984V21C0 22.1016 0.895313 23.0016 2.00156 23.0016H22.0031C23.1047 23.0016 24.0047 22.1063 24.0047 21V18.9984C24 17.8969 23.1047 17.0016 21.9984 17.0016ZM3.99844 21H2.00156V18.9984H4.00313V21H3.99844ZM18 21H17.0016V18.9984H18V21ZM20.0016 21H19.0031V18.9984H20.0016V21ZM21.9984 21H21V18.9984H21.9984V21ZM21.9984 9.00001H2.00156C0.895313 9.00001 0 9.89532 0 11.0016V13.0031C0 14.1047 0.895313 15 2.00156 15H22.0031C23.1047 15 24.0047 14.1047 24.0047 12.9984V10.9969C24 9.89532 23.1047 9.00001 21.9984 9.00001ZM3.99844 12.9984H2.00156V10.9969H4.00313V12.9984H3.99844ZM18 12.9984H17.0016V10.9969H18V12.9984ZM20.0016 12.9984H19.0031V10.9969H20.0016V12.9984ZM21.9984 12.9984H21V10.9969H21.9984V12.9984ZM21.9984 0.998444H2.00156C0.895313 0.998444 0 1.89844 0 3.00001V5.00157C0 6.10313 0.895313 7.00313 2.00156 7.00313H22.0031C23.1047 7.00313 24.0047 6.10782 24.0047 5.00157V3.00001C24 1.89844 23.1047 0.998444 21.9984 0.998444ZM3.99844 5.00157H2.00156V3.00001H4.00313V5.00157H3.99844ZM18 5.00157H17.0016V3.00001H18V5.00157ZM20.0016 5.00157H19.0031V3.00001H20.0016V5.00157ZM21.9984 5.00157H21V3.00001H21.9984V5.00157Z" fill="black"/>
</svg>
