<?xml version="1.0" encoding="UTF-8"?>
<svg version="1.1" xmlns="http://www.w3.org/2000/svg" width="225" height="225">
<path d="M0 0 C74.25 0 148.5 0 225 0 C225 74.25 225 148.5 225 225 C150.75 225 76.5 225 0 225 C0 150.75 0 76.5 0 0 Z " fill="#FEFEFE" transform="translate(0,0)"/>
<path d="M0 0 C1.91195412 0.00636726 1.91195412 0.00636726 3.86253357 0.01286316 C7.22134868 0.02673452 10.57953074 0.05360017 13.93817139 0.0869751 C17.37734563 0.11788146 20.81658575 0.13141203 24.25585938 0.14648438 C30.98194301 0.17944384 37.70773191 0.22956108 44.43359375 0.29296875 C40.41543213 6.65342025 36.35884588 12.97626573 32.125 19.1953125 C31.13175264 20.66072461 30.13850728 22.12613808 29.14526367 23.59155273 C28.63192474 24.34765839 28.11858582 25.10376404 27.58969116 25.88278198 C18.03658602 39.95641084 8.54822097 54.07216923 -0.87890625 68.23046875 C-1.39218475 69.00131805 -1.90546326 69.77216736 -2.43429565 70.56637573 C-4.7257814 74.0083828 -7.01643055 77.45094404 -9.3059082 80.89428711 C-9.68558746 81.46357437 -10.06526672 82.03286163 -10.45645142 82.61940002 C-11.56231307 84.28679714 -12.65266122 85.96444891 -13.74291992 87.64208984 C-18.73605535 94.90082119 -28.36081735 96.77272117 -36.56640625 98.29296875 C-40.75883821 98.6466422 -44.90842136 98.64647435 -49.11328125 98.5859375 C-50.25049622 98.58169266 -51.38771118 98.57744781 -52.55938721 98.57307434 C-56.14531452 98.55645597 -59.73065255 98.51883583 -63.31640625 98.48046875 C-65.76691889 98.46540014 -68.21744046 98.45171558 -70.66796875 98.43945312 C-76.63431122 98.40660789 -82.60031662 98.35657999 -88.56640625 98.29296875 C-86.8116499 93.64531604 -84.34596435 89.83931172 -81.50390625 85.79296875 C-80.32674316 84.094707 -79.1511042 82.39538829 -77.9765625 80.6953125 C-76.95393311 79.21587158 -76.95393311 79.21587158 -75.91064453 77.70654297 C-71.58438692 71.42284029 -67.33276615 65.08802962 -63.06661987 58.76345825 C-61.43742268 56.34956651 -59.80607538 53.93714191 -58.17407227 51.52514648 C-53.53309606 44.66410385 -48.895186 37.8016922 -44.3119812 30.90187073 C-42.59398247 28.31696515 -40.86875356 25.73693121 -39.14263916 23.15744019 C-38.35319335 21.97319124 -37.56738994 20.78650456 -36.7855835 19.59719849 C-26.5886411 4.08915145 -18.62977392 -0.23601229 0 0 Z " fill="#1072BA" transform="translate(89.56640625,98.70703125)"/>
<path d="M0 0 C7.18580222 -0.07661597 14.3714975 -0.12883556 21.55761719 -0.16479492 C23.9977614 -0.17979978 26.43787902 -0.20021015 28.87792969 -0.22631836 C32.40306192 -0.26306851 35.92783488 -0.27981002 39.453125 -0.29296875 C41.06637665 -0.31619453 41.06637665 -0.31619453 42.71221924 -0.33988953 C51.72460612 -0.3418528 61.38051279 0.1050785 68.2734375 6.484375 C72.58639258 11.3645315 76.114586 16.77890965 79.625 22.25 C81.01219789 24.37508659 82.40156263 26.49876012 83.79296875 28.62109375 C84.48825684 29.68312012 85.18354492 30.74514648 85.89990234 31.83935547 C89.72380368 37.59432254 93.72822003 43.22248952 97.74658203 48.84277344 C98.2929834 49.61266602 98.83938477 50.38255859 99.40234375 51.17578125 C99.88179443 51.84520752 100.36124512 52.51463379 100.85522461 53.2043457 C102 55 102 55 103 58 C95.9383037 58.07655567 88.87671587 58.12881072 81.81469727 58.16479492 C79.41621908 58.17980862 77.01776801 58.20022579 74.61938477 58.22631836 C71.15634436 58.26302904 67.6936694 58.27980116 64.23046875 58.29296875 C63.17168015 58.30845261 62.11289154 58.32393646 61.02201843 58.33988953 C51.37112014 58.342033 40.26644028 56.96840269 33 50 C29.92583045 45.94319411 27.23663757 41.68662586 24.52783203 37.38085938 C21.58082103 32.78845744 18.4633855 28.3104524 15.375 23.8125 C11.2550938 17.78143512 7.13568306 11.7502485 3.0625 5.6875 C2.45535156 4.78386719 1.84820312 3.88023438 1.22265625 2.94921875 C0 1 0 1 0 0 Z " fill="#D72027" transform="translate(120,28)"/>
<path d="M0 0 C1.23307388 0.00424484 2.46614777 0.00848969 3.73658752 0.01286316 C7.65925299 0.02960138 11.58139711 0.0672461 15.50390625 0.10546875 C18.16991436 0.12221778 20.83591757 0.13420906 23.50195312 0.14648438 C30.02361416 0.17948913 36.54497295 0.22964085 43.06640625 0.29296875 C41.77460015 3.62089591 40.45851896 6.41187975 38.37109375 9.3125 C37.55620483 10.45803345 37.55620483 10.45803345 36.72485352 11.62670898 C36.13631592 12.44469971 35.54777832 13.26269043 34.94140625 14.10546875 C30.79107435 19.92445139 26.71976319 25.77345954 22.828125 31.76953125 C22.12768066 32.84485107 21.42723633 33.9201709 20.70556641 35.02807617 C19.34705935 37.12301352 17.99863229 39.22453078 16.66162109 41.33325195 C10.90608561 50.17469329 5.43753823 54.8869289 -4.93359375 57.29296875 C-9.17081547 57.67514496 -13.37347556 57.64395117 -17.625 57.5859375 C-18.8108519 57.58169266 -19.9967038 57.57744781 -21.2184906 57.57307434 C-24.97793001 57.55638308 -28.73681842 57.51874763 -32.49609375 57.48046875 C-35.05663284 57.46540961 -37.6171804 57.45172337 -40.17773438 57.43945312 C-46.42987309 57.40651082 -52.68169404 57.35640695 -58.93359375 57.29296875 C-56.75471011 53.41734864 -54.58616305 49.63429459 -52.0078125 46.0078125 C-51.46576172 45.24025635 -50.92371094 44.4727002 -50.36523438 43.68188477 C-49.78966797 42.87291748 -49.21410156 42.0639502 -48.62109375 41.23046875 C-44.64700076 35.61796176 -40.70954865 29.98915561 -36.890625 24.26953125 C-36.22909424 23.28218994 -35.56756348 22.29484863 -34.88598633 21.27758789 C-33.6115719 19.37018933 -32.34414306 17.45809954 -31.0847168 15.54077148 C-22.69228346 3.01845342 -14.86343708 -0.19359254 0 0 Z " fill="#BDD860" transform="translate(178.93359375,99.70703125)"/>
<path d="M0 0 C17.82 0.33 35.64 0.66 54 1 C50.69477196 3.20348536 49.72339001 3.24563385 45.88598633 3.22705078 C44.84513382 3.22689972 43.80428131 3.22674866 42.73188782 3.22659302 C41.60993515 3.21627045 40.48798248 3.20594788 39.33203125 3.1953125 C37.60710701 3.19106766 37.60710701 3.19106766 35.84733582 3.18673706 C32.16895204 3.17552833 28.49081038 3.15042224 24.8125 3.125 C22.32096705 3.11497111 19.8294303 3.1058451 17.33789062 3.09765625 C11.22517759 3.07558673 5.11260609 3.04210224 -1 3 C-0.67 2.01 -0.34 1.02 0 0 Z " fill="#247DBF" transform="translate(2,194)"/>
</svg>
